<svg width="16" height="12" viewBox="0 0 16 12" fill="none" xmlns="http://www.w3.org/2000/svg">
<path d="M0.695652 0C0.511159 1.87178e-05 0.334228 0.0743943 0.203772 0.206769C0.0733161 0.339143 1.84465e-05 0.518676 0 0.705882V9.17647C1.84465e-05 9.36368 0.0733161 9.54321 0.203772 9.67558C0.334228 9.80796 0.511159 9.88233 0.695652 9.88235H1.42663C1.59873 11.0721 2.60874 12 3.82609 12C5.04343 12 6.05344 11.0721 6.22554 9.88235H9.77446C9.94656 11.0721 10.9566 12 12.1739 12C13.3913 12 14.4013 11.0721 14.5734 9.88235H15.3043C15.4888 9.88233 15.6658 9.80796 15.7962 9.67558C15.9267 9.54321 16 9.36368 16 9.17647V6.56939C16 6.17722 15.892 5.79309 15.6902 5.45956C15.6902 5.4591 15.6902 5.45864 15.6902 5.45818L14.2731 3.12408C13.8936 2.49885 13.2193 2.11765 12.4959 2.11765H9.73913V0.705882C9.73911 0.518676 9.66581 0.339143 9.53536 0.206769C9.4049 0.0743943 9.22797 1.87178e-05 9.04348 0H0.695652ZM1.3913 1.41176H8.34783V2.82353V3.88235V5.64706V8.47059H6.01359C5.61927 7.64096 4.78828 7.05882 3.82609 7.05882C2.86389 7.05882 2.0329 7.64096 1.63859 8.47059H1.3913V1.41176ZM2.78261 2.82353V6.35294H4.17391V2.82353H2.78261ZM5.56522 2.82353V6.35294H6.95652V2.82353H5.56522ZM9.73913 3.52941H12.4959C12.7381 3.52941 12.9614 3.6553 13.0883 3.86443L14.5054 6.19853C14.5731 6.31084 14.6087 6.43967 14.6087 6.56939V8.47059H14.3614C13.9671 7.64096 13.1361 7.05882 12.1739 7.05882C11.2117 7.05882 10.3807 7.64096 9.98641 8.47059H9.73913V5.64706V3.88235V3.52941ZM3.82609 8.47059C4.41062 8.47059 4.86957 8.93628 4.86957 9.52941C4.86957 10.1225 4.41062 10.5882 3.82609 10.5882C3.24155 10.5882 2.78261 10.1225 2.78261 9.52941C2.78261 8.93628 3.24155 8.47059 3.82609 8.47059ZM12.1739 8.47059C12.7585 8.47059 13.2174 8.93628 13.2174 9.52941C13.2174 10.1225 12.7585 10.5882 12.1739 10.5882C11.5894 10.5882 11.1304 10.1225 11.1304 9.52941C11.1304 8.93628 11.5894 8.47059 12.1739 8.47059Z" fill="#C1C1C1"/>
</svg>
