<svg width="20" height="20" viewBox="0 0 20 20" fill="none" xmlns="http://www.w3.org/2000/svg">
<g clip-path="url(#clip0)">
<path d="M9.99973 2.49969C8.62889 2.49969 7.49973 3.62885 7.49973 4.99969C7.49973 6.07733 8.20196 6.99565 9.1664 7.34344V9.16636V9.99969H7.49973V11.6664H9.1664V15.7728C8.05884 15.6438 7.075 15.2786 6.35878 14.7669C5.61052 14.2324 5.16596 13.5867 5.04043 12.9001L6.27903 12.2865L2.93593 10.7923L2.05377 14.3796L3.51699 13.6553C3.82521 14.6369 4.50473 15.4917 5.39036 16.1244C6.41478 16.8561 7.72342 17.3251 9.1664 17.4574V17.4997L9.99973 18.333L10.8331 17.4997V17.4574C12.276 17.3251 13.5847 16.8561 14.6091 16.1244C15.4947 15.4917 16.1743 14.6369 16.4825 13.6553L17.9457 14.3796L17.0635 10.7923L13.7204 12.2865L14.959 12.9001C14.8335 13.5867 14.389 14.2324 13.6407 14.7669C12.9245 15.2786 11.9406 15.6438 10.8331 15.7728V11.6664H12.4997V9.99969H10.8331V9.16636V7.34344C11.7975 6.99565 12.4997 6.07733 12.4997 4.99969C12.4997 3.62885 11.3706 2.49969 9.99973 2.49969ZM9.99973 4.16636C10.4698 4.16636 10.8331 4.52959 10.8331 4.99969C10.8331 5.4698 10.4698 5.83303 9.99973 5.83303C9.52963 5.83303 9.1664 5.4698 9.1664 4.99969C9.1664 4.52959 9.52963 4.16636 9.99973 4.16636Z" fill="#C1C1C1"/>
</g>
<defs>
<clipPath id="clip0">
<rect width="20" height="20" fill="white"/>
</clipPath>
</defs>
</svg>
